<svg width="18" height="18" xmlns="http://www.w3.org/2000/svg" xmlns:xlink="http://www.w3.org/1999/xlink" xmlns:svgjs="http://svgjs.com/svgjs" viewBox="42 148 18 18"><svg width="9" height="16" xmlns="http://www.w3.org/2000/svg" xmlns:xlink="http://www.w3.org/1999/xlink" xmlns:svgjs="http://svgjs.com/svgjs" fill="#05c160" x="42" y="149"><svg xmlns="http://www.w3.org/2000/svg" xmlns:xlink="http://www.w3.org/1999/xlink" width="9" height="16"><path paint-order="stroke fill markers" fill-rule="evenodd" d="M0 5v6h4l5 5V0L4 5H0zm7-.17v6.34L4.83 9H2V7h2.83L7 4.83z"/></svg></svg><svg width="7" height="18" xmlns="http://www.w3.org/2000/svg" xmlns:xlink="http://www.w3.org/1999/xlink" xmlns:svgjs="http://svgjs.com/svgjs" viewBox="0 0.23 7 17.54" fill="#05c160" x="53" y="148"><svg xmlns="http://www.w3.org/2000/svg" xmlns:xlink="http://www.w3.org/1999/xlink" width="7" height="18" viewBox="0 0.23 7 17.54"><path paint-order="stroke fill markers" fill-rule="evenodd" d="M0 .23v2.06C2.89 3.15 5 5.83 5 9s-2.11 5.85-5 6.71v2.06c4.01-.91 7-4.49 7-8.77C7 4.72 4.01 1.14 0 .23z"/></svg></svg><svg width="3" height="10" xmlns="http://www.w3.org/2000/svg" xmlns:xlink="http://www.w3.org/1999/xlink" xmlns:svgjs="http://svgjs.com/svgjs" viewBox="0 0.17 3 9.66" fill="#05c160" x="53" y="152"><svg xmlns="http://www.w3.org/2000/svg" width="3" height="10" viewBox="0 0.97 2.5 8.05"><path paint-order="stroke fill markers" fill-rule="evenodd" d="M2.5 5A4.5 4.5 0 0 0 0 .97v8.05C1.48 8.29 2.5 6.77 2.5 5z"/></svg></svg></svg>