<svg width="37" height="37" xmlns="http://www.w3.org/2000/svg" xmlns:xlink="http://www.w3.org/1999/xlink" xmlns:svgjs="http://svgjs.com/svgjs" viewBox="329 134 37 37"><svg width="37" height="37" xmlns="http://www.w3.org/2000/svg" xmlns:xlink="http://www.w3.org/1999/xlink" xmlns:svgjs="http://svgjs.com/svgjs" fill="#05c160" x="329" y="134"><svg xmlns="http://www.w3.org/2000/svg" xmlns:xlink="http://www.w3.org/1999/xlink" width="37" height="37"><path paint-order="stroke fill markers" fill-rule="evenodd" d="M18.5 37C8.27 37 0 28.73 0 18.5S8.27 0 18.5 0 37 8.27 37 18.5 28.73 37 18.5 37z"/></svg></svg><svg width="18" height="18" xmlns="http://www.w3.org/2000/svg" xmlns:xlink="http://www.w3.org/1999/xlink" xmlns:svgjs="http://svgjs.com/svgjs" fill="#f5f5f5" x="339" y="144"><svg xmlns="http://www.w3.org/2000/svg" width="18" height="18"><path paint-order="stroke fill markers" fill-rule="evenodd" d="M17 12.5c-1.25 0-2.45-.2-3.57-.57a1.02 1.02 0 0 0-1.02.24l-2.2 2.2a15.045 15.045 0 0 1-6.59-6.59l2.2-2.21a.96.96 0 0 0 .25-1A11.36 11.36 0 0 1 5.5 1c0-.55-.45-1-1-1H1C.45 0 0 .45 0 1c0 9.39 7.61 17 17 17 .55 0 1-.45 1-1v-3.5c0-.55-.45-1-1-1z"/></svg></svg></svg>