<svg width="14" height="20" xmlns="http://www.w3.org/2000/svg" xmlns:xlink="http://www.w3.org/1999/xlink" xmlns:svgjs="http://svgjs.com/svgjs" viewBox="21 313 14 20"><svg width="14" height="20" xmlns="http://www.w3.org/2000/svg" xmlns:xlink="http://www.w3.org/1999/xlink" xmlns:svgjs="http://svgjs.com/svgjs" fill="#a3a3a3" x="21" y="313"><svg xmlns="http://www.w3.org/2000/svg" xmlns:xlink="http://www.w3.org/1999/xlink" width="14" height="20"><path paint-order="stroke fill markers" fill-rule="evenodd" d="M7 0C3.13 0 0 3.13 0 7c0 5.25 7 13 7 13s7-7.75 7-13c0-3.87-3.13-7-7-7zM2 7c0-2.76 2.24-5 5-5s5 2.24 5 5c0 2.88-2.88 7.19-5 9.88C4.92 14.21 2 9.85 2 7z"/></svg></svg><svg width="6" height="6" xmlns="http://www.w3.org/2000/svg" xmlns:xlink="http://www.w3.org/1999/xlink" xmlns:svgjs="http://svgjs.com/svgjs" fill="#a3a3a3" x="25" y="317"><svg xmlns="http://www.w3.org/2000/svg" width="6" height="6" viewBox="0.5 0.5 5 5"><path paint-order="stroke fill markers" fill-rule="evenodd" d="M3 5.5A2.498 2.498 0 0 1 .5 3C.5 1.617 1.617.5 3 .5 4.382.5 5.5 1.617 5.5 3c0 1.382-1.118 2.5-2.5 2.5z"/></svg></svg></svg>