<svg width="16" height="16" xmlns="http://www.w3.org/2000/svg" xmlns:xlink="http://www.w3.org/1999/xlink" xmlns:svgjs="http://svgjs.com/svgjs" viewBox="19 396 16 16"><svg width="6" height="8" xmlns="http://www.w3.org/2000/svg" xmlns:xlink="http://www.w3.org/1999/xlink" xmlns:svgjs="http://svgjs.com/svgjs" viewBox="0.391 0 5.217 8" fill="#a3a3a3" x="26" y="400"><svg xmlns="http://www.w3.org/2000/svg" xmlns:xlink="http://www.w3.org/1999/xlink" width="6" height="8" viewBox="0.404 0.278 4.689 7.189"><path paint-order="stroke fill markers" fill-rule="evenodd" d="M1.576.278H.404v4.689l4.064 2.5.625-1.015-3.517-2.11V.278z"/></svg></svg><svg width="16" height="16" xmlns="http://www.w3.org/2000/svg" xmlns:xlink="http://www.w3.org/1999/xlink" xmlns:svgjs="http://svgjs.com/svgjs" fill="#a3a3a3" x="19" y="396"><svg xmlns="http://www.w3.org/2000/svg" width="16" height="16" viewBox="0.371 0.371 15.629 15.629"><path paint-order="stroke fill markers" fill-rule="evenodd" d="M8.185.37C3.887.37.371 3.888.371 8.186S3.887 16 8.185 16 16 12.483 16 8.185 12.483.371 8.185.371zm0 14.067a6.26 6.26 0 0 1-6.251-6.252 6.26 6.26 0 0 1 6.251-6.251 6.26 6.26 0 0 1 6.252 6.251 6.26 6.26 0 0 1-6.252 6.252z"/></svg></svg></svg>